<mxfile host="app.diagrams.net" agent="Mozilla/5.0 (Windows NT 10.0; Win64; x64) AppleWebKit/537.36 (KHTML, like Gecko) Chrome/141.0.0.0 Safari/537.36" version="28.2.8">
  <diagram name="Page-1" id="zkhJZKPtHoh3gSzy9Pgv">
    <mxGraphModel dx="734" dy="824" grid="1" gridSize="10" guides="1" tooltips="1" connect="1" arrows="1" fold="1" page="1" pageScale="1" pageWidth="850" pageHeight="1100" math="0" shadow="0">
      <root>
        <mxCell id="0" />
        <mxCell id="1" parent="0" />
        <mxCell id="84Q80O6I_avkNN1ZiTrI-26" value="" style="shape=umlLifeline;perimeter=lifelinePerimeter;whiteSpace=wrap;html=1;container=1;dropTarget=0;collapsible=0;recursiveResize=0;outlineConnect=0;portConstraint=eastwest;newEdgeStyle={&quot;curved&quot;:0,&quot;rounded&quot;:0};participant=umlActor;" vertex="1" parent="1">
          <mxGeometry x="230" y="200" width="20" height="300" as="geometry" />
        </mxCell>
        <mxCell id="84Q80O6I_avkNN1ZiTrI-29" value="" style="html=1;points=[[0,0,0,0,5],[0,1,0,0,-5],[1,0,0,0,5],[1,1,0,0,-5]];perimeter=orthogonalPerimeter;outlineConnect=0;targetShapes=umlLifeline;portConstraint=eastwest;newEdgeStyle={&quot;curved&quot;:0,&quot;rounded&quot;:0};" vertex="1" parent="84Q80O6I_avkNN1ZiTrI-26">
          <mxGeometry x="5" y="70" width="10" height="200" as="geometry" />
        </mxCell>
        <mxCell id="84Q80O6I_avkNN1ZiTrI-27" value="Shopping" style="shape=umlLifeline;perimeter=lifelinePerimeter;whiteSpace=wrap;html=1;container=1;dropTarget=0;collapsible=0;recursiveResize=0;outlineConnect=0;portConstraint=eastwest;newEdgeStyle={&quot;curved&quot;:0,&quot;rounded&quot;:0};" vertex="1" parent="1">
          <mxGeometry x="320" y="200" width="100" height="300" as="geometry" />
        </mxCell>
        <mxCell id="84Q80O6I_avkNN1ZiTrI-36" value="" style="html=1;points=[[0,0,0,0,5],[0,1,0,0,-5],[1,0,0,0,5],[1,1,0,0,-5]];perimeter=orthogonalPerimeter;outlineConnect=0;targetShapes=umlLifeline;portConstraint=eastwest;newEdgeStyle={&quot;curved&quot;:0,&quot;rounded&quot;:0};" vertex="1" parent="84Q80O6I_avkNN1ZiTrI-27">
          <mxGeometry x="45" y="70" width="10" height="190" as="geometry" />
        </mxCell>
        <mxCell id="84Q80O6I_avkNN1ZiTrI-28" value="Cart" style="shape=umlLifeline;perimeter=lifelinePerimeter;whiteSpace=wrap;html=1;container=1;dropTarget=0;collapsible=0;recursiveResize=0;outlineConnect=0;portConstraint=eastwest;newEdgeStyle={&quot;curved&quot;:0,&quot;rounded&quot;:0};" vertex="1" parent="1">
          <mxGeometry x="470" y="200" width="100" height="300" as="geometry" />
        </mxCell>
        <mxCell id="84Q80O6I_avkNN1ZiTrI-41" value="" style="html=1;points=[[0,0,0,0,5],[0,1,0,0,-5],[1,0,0,0,5],[1,1,0,0,-5]];perimeter=orthogonalPerimeter;outlineConnect=0;targetShapes=umlLifeline;portConstraint=eastwest;newEdgeStyle={&quot;curved&quot;:0,&quot;rounded&quot;:0};" vertex="1" parent="84Q80O6I_avkNN1ZiTrI-28">
          <mxGeometry x="45" y="80" width="10" height="180" as="geometry" />
        </mxCell>
        <mxCell id="84Q80O6I_avkNN1ZiTrI-37" value="Chọn sản phẩm" style="html=1;verticalAlign=bottom;endArrow=block;curved=0;rounded=0;entryX=0;entryY=0;entryDx=0;entryDy=5;" edge="1" target="84Q80O6I_avkNN1ZiTrI-36" parent="1" source="84Q80O6I_avkNN1ZiTrI-29">
          <mxGeometry relative="1" as="geometry">
            <mxPoint x="260" y="285" as="sourcePoint" />
          </mxGeometry>
        </mxCell>
        <mxCell id="84Q80O6I_avkNN1ZiTrI-39" value="Hiển thị kết quả" style="html=1;verticalAlign=bottom;endArrow=open;dashed=1;endSize=8;curved=0;rounded=0;" edge="1" parent="1">
          <mxGeometry relative="1" as="geometry">
            <mxPoint x="365" y="450" as="sourcePoint" />
            <mxPoint x="245" y="450" as="targetPoint" />
            <Array as="points">
              <mxPoint x="300" y="450" />
            </Array>
          </mxGeometry>
        </mxCell>
        <mxCell id="84Q80O6I_avkNN1ZiTrI-42" value="Lấy thông tin" style="html=1;verticalAlign=bottom;endArrow=block;curved=0;rounded=0;entryX=0;entryY=0;entryDx=0;entryDy=5;" edge="1" target="84Q80O6I_avkNN1ZiTrI-41" parent="1" source="84Q80O6I_avkNN1ZiTrI-36">
          <mxGeometry relative="1" as="geometry">
            <mxPoint x="360" y="265" as="sourcePoint" />
          </mxGeometry>
        </mxCell>
        <mxCell id="84Q80O6I_avkNN1ZiTrI-43" value="Trả thông tin" style="html=1;verticalAlign=bottom;endArrow=open;dashed=1;endSize=8;curved=0;rounded=0;exitX=0;exitY=1;exitDx=0;exitDy=-5;entryX=1;entryY=1;entryDx=0;entryDy=-5;entryPerimeter=0;" edge="1" parent="1">
          <mxGeometry relative="1" as="geometry">
            <mxPoint x="375" y="320" as="targetPoint" />
            <mxPoint x="515" y="320" as="sourcePoint" />
          </mxGeometry>
        </mxCell>
        <mxCell id="84Q80O6I_avkNN1ZiTrI-44" value="Thêm vào giỏ hàng" style="html=1;verticalAlign=bottom;endArrow=block;curved=0;rounded=0;entryX=0;entryY=0;entryDx=0;entryDy=5;" edge="1" parent="1">
          <mxGeometry relative="1" as="geometry">
            <mxPoint x="376" y="344" as="sourcePoint" />
            <mxPoint x="516" y="344" as="targetPoint" />
          </mxGeometry>
        </mxCell>
        <mxCell id="84Q80O6I_avkNN1ZiTrI-45" value="Xác nhận thêm" style="html=1;verticalAlign=bottom;endArrow=open;dashed=1;endSize=8;curved=0;rounded=0;exitX=0;exitY=1;exitDx=0;exitDy=-5;entryX=1;entryY=1;entryDx=0;entryDy=-5;entryPerimeter=0;" edge="1" parent="1">
          <mxGeometry relative="1" as="geometry">
            <mxPoint x="375" y="370" as="targetPoint" />
            <mxPoint x="515" y="370" as="sourcePoint" />
          </mxGeometry>
        </mxCell>
        <mxCell id="84Q80O6I_avkNN1ZiTrI-46" value="loop" style="shape=umlFrame;whiteSpace=wrap;html=1;pointerEvents=0;" vertex="1" parent="1">
          <mxGeometry x="190" y="250" width="420" height="240" as="geometry" />
        </mxCell>
      </root>
    </mxGraphModel>
  </diagram>
</mxfile>
